<svg xmlns="http://www.w3.org/2000/svg" viewBox="0 0 200 32" width="200" height="32" role="img" aria-label="π+ Pi Web Plus"><title>π+ Pi Web Plus</title><path data-pi-brand-part="bubble" d="M16 1.5 H30 C37.73 1.5 44 7.77 44 15.5 C44 23.23 37.73 29.5 30 29.5 H15.7 L5 31.6 L7.8 25.1 C4.2 22.55 2 19.12 2 15.5 C2 7.77 8.27 1.5 16 1.5 Z" fill="#23454b"/><path data-pi-brand-part="pi-bar" d="M8.8 12.4 C9.6 10.4 10.9 9.8 12.8 9.8 H23.6" fill="none" stroke="#ffffff" stroke-width="2.45" stroke-linecap="round" stroke-linejoin="round"/><path data-pi-brand-part="pi-left-leg" d="M13.6 10.1 L11.7 21.5" fill="none" stroke="#ffffff" stroke-width="2.45" stroke-linecap="round"/><path data-pi-brand-part="pi-right-leg" d="M20.4 10.1 L20 19.2 C19.9 20.9 20.8 21.6 22.4 21.3" fill="none" stroke="#ffffff" stroke-width="2.45" stroke-linecap="round" stroke-linejoin="round"/><path data-pi-brand-part="plus" d="M33.1 11.3 V18.7 M29.4 15 H36.8" fill="none" stroke="#ffffff" stroke-width="2.2" stroke-linecap="round"/><text data-pi-brand-part="wordmark" x="56" y="23.2" fill="#1a1a1a" font-family="ui-monospace, SFMono-Regular, Menlo, Monaco, Consolas, 'Liberation Mono', 'Courier New', monospace" font-size="21.5" font-weight="700" letter-spacing="-0.3">Pi Web Plus</text></svg>
